<?xml version="1.0" encoding="utf-8"?>
<!-- Generator: Adobe Illustrator 19.0.0, SVG Export Plug-In . SVG Version: 6.00 Build 0)  -->
<svg version="1.1" xmlns="http://www.w3.org/2000/svg" xmlns:xlink="http://www.w3.org/1999/xlink" x="0px" y="0px"
	 viewBox="-232 378 146 38" style="enable-background:new -232 378 146 38;" xml:space="preserve">
<style type="text/css">
	.st0{fill:#FFFFFF;}
	.st1{display:none;}
	.st2{display:inline;fill:#FFFFFF;}
</style>
<g id="图层_3">
	<rect x="-187.5" y="385.1" class="st0" width="7.3" height="22.4"/>
	<path class="st0" d="M-177.5,385.1v22.4h7.6l5.1-9v9h7.3l9.3-14.8l1.7,0.1v14.7h7.1v-15l4.1,0.1v-7.6h-15.8l-5.2,7.7v-7.7h-7.7
		l-6.1,10.2l0.1-10.2C-177.5,385.1-177.5,385.1-177.5,385.1z"/>
</g>
<g id="图层_4" class="st1">
</g>
<g id="图层_2" class="st1">
</g>
<g id="图层_1" class="st1">
	<title>Shape Copy</title>
	<desc>Created with Sketch.</desc>
	<path class="st2" d="M-89.9,404.2c0,0,0.3,0,0.8,0s0.7,0.4,0.7,0.4s1.1,2,1.4,2.5c0.3,0.4-0.1,0.4-0.1,0.4c0,0,0,0,0,0s0,0,0,0
		c0,0-0.3,0-3.5,0c-4.4-0.6-4.5-4.5-4.5-4.5v-7h-2.5v-2.6c0-0.4,0.4-0.4,0.4-0.4h2.1v-2.6c0-0.4,0.4-0.6,0.4-0.6s1.5-0.4,2.3-0.7
		c0.3-0.1,0.5,0.1,0.5,0.1s0.1-0.1,0.1,0.2v3.6h3.6c0.3,0,0.4,0.4,0.4,0.4v2.6h-4v6.1C-91.8,403.9-89.9,404.2-89.9,404.2
		L-89.9,404.2z"/>
	<path class="st2" d="M-100.5,407.2h-2.2c-0.4,0-0.4-0.6-0.4-0.6v-10.2c0-0.6-0.8-0.8-0.8-0.8h-4.5c-0.7,0-0.7,0.8-0.7,0.8v10.3
		c0,0.4-0.4,0.4-0.4,0.4h-2.2c-0.5,0-0.4-0.6-0.4-0.6v-12.8c0-1,1.2-1.2,1.2-1.2h9.6c1,0,1.2,1.2,1.2,1.2v12.7
		C-100,407.2-100.5,407.2-100.5,407.2L-100.5,407.2z"/>
	<path class="st2" d="M-116.1,401.4h-8.5v2.1c0,0.7,1,1,1,1h6.9c0.5,0,0.8,0.4,0.8,0.4s0.6,1.2,0.8,1.8c0.2,0.5-0.4,0.6-0.4,0.6
		h-10.3c-1.2,0-1.5-1.5-1.5-1.5V394c0-0.7,1-1,1-1h10.3c1,0,1.2,1.2,1.2,1.2v5.9C-114.9,401.2-116.1,401.4-116.1,401.4L-116.1,401.4
		z"/>
	<path class="st2" d="M-117.7,396.4c0,0-0.1-0.7-0.7-0.7h-5.6c0,0-0.7,0.2-0.7,0.7v1.5c0,0,0,0.7,0.7,0.7h5.6c0,0,0.7-0.2,0.7-0.8
		V396.4L-117.7,396.4z"/>
	<path class="st2" d="M-130.6,407.2h-2.2c-0.3,0-0.4-0.4-0.4-0.4v-10.3c0-0.6-0.8-0.8-0.8-0.8h-2.1c-0.6,0-0.7,0.8-0.7,0.8v10.3
		c0,0.3-0.4,0.4-0.4,0.4h-2.2c-0.3,0-0.4-0.4-0.4-0.4v-10.3c0-0.7-0.8-0.8-0.8-0.8h-2.1c-0.6,0-0.7,0.8-0.7,0.8v10.3
		c0,0.4-0.4,0.4-0.4,0.4h-2.2c-0.4,0-0.4-0.4-0.4-0.4v-13.1c0-0.8,1.1-1.1,1.1-1.1h13.8c1.1,0,1.4,1.4,1.4,1.4v12.8
		C-130.2,407.2-130.6,407.2-130.6,407.2L-130.6,407.2z"/>
	<path class="st2" d="M-150.5,401.4h-8.5v2.1c0,0.7,1,1,1,1h6.9c0.5,0,0.8,0.4,0.8,0.4s0.6,1.2,0.8,1.8c0.2,0.5-0.4,0.6-0.4,0.6
		h-10.3c-1.2,0-1.5-1.5-1.5-1.5V394c0-0.7,1-1,1-1h10.3c1,0,1.2,1.2,1.2,1.2v5.9C-149.3,401.2-150.5,401.4-150.5,401.4L-150.5,401.4
		z"/>
	<path class="st2" d="M-152.1,396.4c0,0-0.1-0.7-0.7-0.7h-5.6c0,0-0.7,0.2-0.7,0.7v1.5c0,0,0,0.7,0.7,0.7h5.6c0,0,0.7-0.2,0.7-0.8
		V396.4L-152.1,396.4z"/>
	<path class="st2" d="M-163.9,407.2h-5.2c0,0-3.8-0.2-4.1-4c0-3.9,0-16.1,0-16.1h2.5c0,0,0.8,0,0.8,0.8v14.5c0,0,0.3,1.2,1.9,1.7
		c1.9,0,2.2,0,2.2,0s0.7-0.2,1.2,0.7c0.5,0.9,1.1,1.9,1.1,1.9S-163.4,407.2-163.9,407.2L-163.9,407.2z"/>
	<path class="st2" d="M-190.4,406.4v-18.2c0-0.8,0.7-1,0.7-1h12.9c0.7,0,0.4,0.8,0.4,0.8s-0.4,1.1-0.7,1.7c-0.3,0.5-0.8,0.6-0.8,0.6
		h-8.4c-0.8,0-0.8,0.7-0.8,0.7v4.5h9.5c0.6,0,0.3,0.7,0.3,0.7s-0.7,1.5-1,1.9c-0.3,0.4-0.8,0.4-0.8,0.4h-8v4.8
		c0,0.7,0.7,0.8,0.7,0.8h8.8c0.6,0,0.8,0.4,0.8,0.4s0.9,1.4,1.2,1.9c0.4,0.6-0.1,0.7-0.1,0.7h-13.9
		C-190.2,407.2-190.4,406.4-190.4,406.4z"/>
	<path class="st2" d="M-198.6,405.2c0,1.6-0.8,1.9-0.8,1.9s-14.1,8.2-15.1,8.7c-0.9,0.4-1.5,0-1.5,0s-14.8-8.6-15.3-9
		c-0.5-0.4-0.6-1-0.6-1s0-17,0-17.8c0-0.8,1-1.4,1-1.4l14.8-8.5c0.9-0.5,1.8,0,1.8,0s13.1,7.6,14.5,8.4c1.4,0.7,1.2,2.1,1.2,2.1
		S-198.6,403.8-198.6,405.2L-198.6,405.2z"/>
</g>
</svg>
